#!OML:ASF I:\Actors\actors\Patient Classification 1\Patient 1\Session 1\Subject1.ASF
:FULLY-SPECIFIED
:DEGREES
303
root -2.39072 18.0413 7.08491 21.3272 9.2672 -6.76298
lowerback 13.5528 -0.694916 2.32366
upperback -4.40833 -0.897716 -3.33904
thorax -12.6205 -0.780164 -4.79875
lowerneck -21.0338 -1.95734 -0.0290302
upperneck 5.7291 -2.80188 1.8866
head 5.09529 -1.22362 0.320325
rclavicle 2.14687e-014 -3.02153e-014
rhumerus 65.2502 -0.204901 -120.884
rradius 16.8422
rwrist 27.2439
rhand 13.6049 -53.966
rfingers 7.12502
rthumb 38.5369 -439.617
lclavicle 2.14687e-014 -3.02153e-014
lhumerus 67.2777 -11.8446 104.78
lradius 9.13624
lwrist -2.97606
lhand -25.0081 19.6958
lfingers 7.12502
lthumb 1.5037 49.6702
rfemur -19.051 25.3378 22.5568
rtibia -2.38978
rfoot -12.7387 -31.8354
rtoes 6.67976
lfemur -30.6709 -46.9338 23.197
ltibia -3.82827
lfoot -1.36104 55.3197
ltoes 2.53179
304
root -2.41471 18.0393 7.07105 21.3127 9.09781 -6.63839
lowerback 13.5127 -0.902374 1.72414
upperback -4.27003 -1.2537 -3.06111
thorax -12.4472 -0.879592 -4.05442
lowerneck -21.062 -1.67965 -0.0722608
upperneck 5.54438 -2.40134 1.74199
head 5.03541 -1.0415 0.322753
rclavicle 1.03368e-014 0
rhumerus 65.3977 0.998663 -120.368
rradius 16.7225
rwrist 27.0125
rhand 13.5403 -53.8448
rfingers 7.12502
rthumb 38.476 -439.513
lclavicle 1.03368e-014 0
lhumerus 68.112 -11.1449 104.81
lradius 9.12747
lwrist -2.93726
lhand -25.0835 19.5277
lfingers 7.12502
lthumb 1.43091 49.5026
rfemur -19.2095 25.525 22.3724
rtibia -2.28984
rfoot -12.2335 -31.9821
rtoes 6.90753
lfemur -30.6007 -46.7334 22.9941
ltibia -3.73593
lfoot -2.43458 55.2503
ltoes 4.42976
305
root -2.43306 18.0372 7.06538 21.2586 8.986 -6.57858
lowerback 13.764 -0.817643 2.12265
upperback -4.34981 -1.11583 -3.48283
thorax -12.7036 -0.875336 -4.79217
lowerneck -21.3391 -1.90478 0.226537
upperneck 5.79785 -2.80238 1.88005
head 5.15998 -1.21516 0.275087
rclavicle -1.74931e-014 -1.59028e-015
rhumerus 65.8065 0.398044 -120.569
rradius 16.7888
rwrist 27.31
rhand 13.5743 -53.7721
rfingers 7.12502
rthumb 38.508 -439.431
lclavicle -1.74931e-014 -1.59028e-015
lhumerus 67.9389 -11.7595 104.791
lradius 9.37026
lwrist -2.93048
lhand -24.9656 19.2861
lfingers 7.12502
lthumb 1.54476 49.2603
rfemur -19.222 25.6866 22.3087
rtibia -2.28112
rfoot -11.7359 -32.1009
rtoes 7.26034
lfemur -30.4826 -46.7304 22.8617
ltibia -3.69671
lfoot -3.95195 55.3256
ltoes 6.55441
306
root -2.44884 18.0385 7.06607 21.297 9.10673 -6.81421
lowerback 13.6197 -0.825983 2.59101
upperback -4.36556 -1.05176 -3.57617
thorax -12.6436 -0.887064 -5.1809
lowerneck -21.3518 -2.02363 0.518305
upperneck 5.71549 -3.02516 1.78007
head 5.13128 -1.32523 0.174564
rclavicle -1.90833e-014 1.43125e-014
rhumerus 66.1749 0.0733692 -120.992
rradius 16.8049
rwrist 27.8495
rhand 13.5783 -53.6779
rfingers 7.12502
rthumb 38.5118 -439.336
lclavicle -1.90833e-014 1.43125e-014
lhumerus 68.0244 -12.069 104.901
lradius 9.43618
lwrist -3.08041
lhand -24.9987 19.0699
lfingers 7.12502
lthumb 1.51283 49.0443
rfemur -19.3321 25.7642 22.5935
rtibia -2.26782
rfoot -11.5021 -32.1188
rtoes 8.4089
lfemur -30.5718 -46.5782 23.2624
ltibia -3.76134
lfoot -4.05181 55.348
ltoes 6.70583
307
root -2.46532 18.0427 7.06758 21.3524 9.23258 -6.98759
lowerback 13.4339 -0.863938 2.78715
upperback -4.38156 -1.06408 -3.53494
thorax -12.5552 -0.904535 -5.24254
lowerneck -21.3004 -2.04673 0.660047
upperneck 5.65604 -3.08596 1.72756
head 5.10184 -1.35656 0.130056
rclavicle 3.97569e-015 3.18055e-015
rhumerus 66.4448 -0.100402 -121.6
rradius 16.7416
rwrist 28.535
rhand 13.5353 -53.5415
rfingers 7.12502
rthumb 38.4712 -439.211
lclavicle 3.97569e-015 3.18055e-015
lhumerus 68.222 -12.1829 105.096
lradius 9.30423
lwrist -3.14819
lhand -25.315 18.8548
lfingers 7.12502
lthumb 1.20734 48.8311
rfemur -19.4273 25.8153 22.8197
rtibia -2.27375
rfoot -11.3439 -32.1245
rtoes 9.29505
lfemur -30.735 -46.4902 23.6561
ltibia -3.79658
lfoot -3.18301 55.4058
ltoes 5.51577
